<?xml version="1.0" encoding="iso-8859-1"?>
<!-- Generator: Adobe Illustrator 19.0.0, SVG Export Plug-In . SVG Version: 6.00 Build 0)  -->
<svg version="1.1" id="Layer_1" xmlns="http://www.w3.org/2000/svg" xmlns:xlink="http://www.w3.org/1999/xlink" x="0px" y="0px"
	 viewBox="0 0 295.996 295.996" style="enable-background:new 0 0 295.996 295.996;" xml:space="preserve">
<g>
	<path style="fill:#FFCE00;" d="M270.996,123.998c0-11.334-1.363-22.348-3.907-32.9c-7.269-15.152-17.35-28.708-29.558-39.996
		c-22.391-13.376-48.766-20.666-76.771-19.644C83.492,34.274,23.139,99.196,25.955,176.463c0.413,11.304,2.17,22.239,5.087,32.673
		c6.303,12.01,14.397,22.938,23.934,32.42c21.892,14.189,47.99,22.44,76.023,22.44C208.316,263.996,270.996,201.316,270.996,123.998
		z M213.666,114.998c0,8.836-7.164,16-16,16s-16-7.164-16-16s7.164-16,16-16S213.666,106.162,213.666,114.998z M190.942,60.14
		l9.375,12.967l-25.933,18.748l-9.375-12.967L190.942,60.14z M105.052,60.14l25.933,18.748l-9.375,12.967L95.677,73.107
		L105.052,60.14z M98.666,98.998c8.836,0,16,7.164,16,16s-7.164,16-16,16s-16-7.164-16-16S89.83,98.998,98.666,98.998z
		 M78.384,209.453l-14.648-6.438c13.872-31.566,45.052-53.112,79.435-54.892c34.614-1.8,67.991,16.555,85.014,46.744
		c1.486,2.636,2.857,5.377,4.075,8.148l-14.648,6.436c-1.005-2.286-2.136-4.548-3.363-6.724
		c-14.067-24.946-41.679-40.11-70.25-38.626C115.599,165.572,89.845,183.373,78.384,209.453z"/>
	<path style="fill:#FFB100;" d="M267.089,91.098c2.544,10.553,3.907,21.566,3.907,32.9c0,77.318-62.68,139.998-139.998,139.998
		c-28.032,0-54.131-8.251-76.023-22.44c23.88,23.744,56.766,38.44,93.023,38.44c72.784,0,131.998-59.214,131.998-131.998
		C279.996,127.636,275.358,108.337,267.089,91.098z"/>
	<path style="fill:#FFE454;" d="M160.76,31.457c28.006-1.021,54.381,6.268,76.771,19.644C213.985,29.328,182.521,16,147.998,16
		C75.214,16,16,75.214,16,147.998c0,22.049,5.442,42.849,15.042,61.138c-2.917-10.434-4.674-21.369-5.087-32.673
		C23.139,99.196,83.492,34.274,160.76,31.457z"/>
	<path d="M147.998,0C66.392,0,0,66.392,0,147.998s66.392,147.998,147.998,147.998s147.998-66.392,147.998-147.998
		S229.604,0,147.998,0z M147.998,279.996c-36.257,0-69.143-14.696-93.023-38.44c-9.536-9.482-17.631-20.41-23.934-32.42
		C21.442,190.847,16,170.047,16,147.998C16,75.214,75.214,16,147.998,16c34.523,0,65.987,13.328,89.533,35.102
		c12.208,11.288,22.289,24.844,29.558,39.996c8.27,17.239,12.907,36.538,12.907,56.9
		C279.996,220.782,220.782,279.996,147.998,279.996z"/>
	<circle cx="98.666" cy="114.998" r="16"/>
	<circle cx="197.666" cy="114.998" r="16"/>
	<path d="M214.247,202.729c1.227,2.176,2.358,4.438,3.363,6.724l14.648-6.436c-1.218-2.771-2.589-5.513-4.075-8.148
		c-17.022-30.189-50.399-48.544-85.014-46.744c-34.383,1.779-65.563,23.325-79.435,54.892l14.648,6.438
		c11.461-26.08,37.215-43.881,65.613-45.351C172.568,162.618,200.18,177.782,214.247,202.729z"/>
	<rect x="97.329" y="68" transform="matrix(-0.8104 -0.5859 0.5859 -0.8104 160.642 203.9886)" width="32" height="16.001"/>
	<rect x="174.661" y="60" transform="matrix(-0.5859 -0.8104 0.8104 -0.5859 228.0911 268.5548)" width="16.001" height="32"/>
</g>
<g>
</g>
<g>
</g>
<g>
</g>
<g>
</g>
<g>
</g>
<g>
</g>
<g>
</g>
<g>
</g>
<g>
</g>
<g>
</g>
<g>
</g>
<g>
</g>
<g>
</g>
<g>
</g>
<g>
</g>
</svg>
