<?xml version="1.0" encoding="iso-8859-1"?>
<!-- Generator: Adobe Illustrator 19.0.0, SVG Export Plug-In . SVG Version: 6.00 Build 0)  -->
<svg version="1.1" id="Layer_1" xmlns="http://www.w3.org/2000/svg" xmlns:xlink="http://www.w3.org/1999/xlink" x="0px" y="0px"
	 viewBox="0 0 295.996 295.996" style="enable-background:new 0 0 295.996 295.996;" xml:space="preserve">
<g>
	<path style="fill:#FFCE00;" d="M173.664,257.258v-52.715c-5-3.552-10.691-6.076-16.75-7.344c-12.35-2.581-25.25,0.275-35.25,7.383
		V263.7c3,0.189,5.977,0.296,9.001,0.296C145.668,263.996,160.664,261.627,173.664,257.258z"/>
	<path style="fill:#FFCE00;" d="M270.83,123.998c0-11.334-1.28-22.348-3.824-32.9c-7.269-15.152-17.308-28.708-29.516-39.996
		c-22.391-13.376-48.745-20.666-76.751-19.645C83.471,34.273,23.128,99.196,25.945,176.463c0.413,11.304,2.175,22.239,5.092,32.673
		c6.303,12.01,14.234,22.938,23.77,32.42c5.732,3.716,11.858,7.026,17.858,9.885V131.997h-6v-16h6.333h49h6.667v16h-7v54.163
		c12-5.567,25.37-7.372,38.525-4.622c4.681,0.979,9.475,2.518,13.475,4.539v-54.08h-7v-16h7.333h49h5.667v16h-6v97.521
		C252.664,203.855,270.83,166.099,270.83,123.998z"/>
	<path style="fill:#FFB100;" d="M267.089,91.098c2.544,10.553,3.741,21.566,3.741,32.9c0,42.101-18.165,79.856-48.165,105.521
		v27.037c35-23.848,57.165-63.611,57.165-108.558C279.83,127.636,275.358,108.337,267.089,91.098z"/>
	<path style="fill:#FFB100;" d="M72.664,256.555v-5.114c-6-2.858-12.289-6.169-18.021-9.885
		C60.187,247.068,66.664,252.088,72.664,256.555z"/>
	<path style="fill:#FFB100;" d="M173.664,277.419v-20.161c-13,4.369-27.996,6.738-42.999,6.738c-3.024,0-6.001-0.107-9.001-0.296
		v13.719c9,1.686,17.103,2.577,26.001,2.577S165.664,279.105,173.664,277.419z"/>
	<path style="fill:#FFE454;" d="M160.76,31.457c28.006-1.021,54.381,6.269,76.771,19.645C213.985,29.328,182.521,16,147.998,16
		C75.214,16,16,75.214,16,147.998c0,22.049,5.442,42.849,15.042,61.138c-2.917-10.434-4.674-21.369-5.087-32.673
		C23.139,99.196,83.492,34.273,160.76,31.457z"/>
	<path style="fill:#28E0FF;" d="M105.664,131.997h-17v134.055c6,2.741,11,5.119,17,7.092V131.997z"/>
	<path style="fill:#28E0FF;" d="M206.664,131.997h-17v141.146c6-1.972,12-4.35,17-7.091V131.997z"/>
	<path d="M147.998,0C66.392,0,0,66.392,0,147.998s66.392,147.998,147.998,147.998s147.998-66.392,147.998-147.998
		S229.604,0,147.998,0z M88.664,266.052V131.997h17v141.146C99.664,271.171,94.664,268.793,88.664,266.052z M121.664,263.7v-59.118
		c10-7.108,22.9-9.964,35.25-7.383c6.059,1.268,11.75,3.792,16.75,7.344v52.715v20.161c-8,1.686-17.102,2.577-25.999,2.577
		c-8.898,0-17.001-0.891-26.001-2.577C121.664,277.419,121.664,263.7,121.664,263.7z M189.664,273.144V131.997h17v134.056
		C201.664,268.794,195.664,271.172,189.664,273.144z M222.664,256.556v-27.037v-97.521h6v-16h-5.667h-49h-7.333v16h7v54.08
		c-4-2.021-8.794-3.56-13.475-4.539c-13.155-2.75-26.525-0.945-38.525,4.622v-54.163h7v-16h-6.667h-49h-6.333v16h6v119.443v5.114
		c-6-4.467-12.311-9.486-17.855-14.999c-9.536-9.482-17.548-20.41-23.85-32.42c-9.6-18.289-15-39.089-15-61.138
		C15.958,75.214,75.193,16,147.977,16c34.523,0,65.998,13.328,89.544,35.102c12.208,11.288,22.294,24.844,29.563,39.996
		c8.27,17.239,12.743,36.538,12.743,56.9C279.827,192.944,257.664,232.708,222.664,256.556z"/>
</g>
<g>
</g>
<g>
</g>
<g>
</g>
<g>
</g>
<g>
</g>
<g>
</g>
<g>
</g>
<g>
</g>
<g>
</g>
<g>
</g>
<g>
</g>
<g>
</g>
<g>
</g>
<g>
</g>
<g>
</g>
</svg>
