<?xml version="1.0" encoding="iso-8859-1"?>
<!-- Generator: Adobe Illustrator 19.0.0, SVG Export Plug-In . SVG Version: 6.00 Build 0)  -->
<svg version="1.1" id="Layer_1" xmlns="http://www.w3.org/2000/svg" xmlns:xlink="http://www.w3.org/1999/xlink" x="0px" y="0px"
	 viewBox="0 0 295.996 295.996" style="enable-background:new 0 0 295.996 295.996;" xml:space="preserve">
<g>
	<path style="fill:#FFCE00;" d="M270.996,123.998c0-11.334-1.363-22.348-3.907-32.9c-7.269-15.152-17.35-28.708-29.558-39.996
		c-22.391-13.376-48.766-20.666-76.771-19.645C83.492,34.273,23.139,99.196,25.955,176.463c0.413,11.304,2.17,22.239,5.087,32.673
		c6.303,12.01,14.397,22.938,23.934,32.42c21.892,14.189,47.99,22.44,76.022,22.44C208.316,263.996,270.996,201.316,270.996,123.998
		z M197.666,98.998c8.836,0,16,7.164,16,16s-7.164,16-16,16s-16-7.164-16-16S188.83,98.998,197.666,98.998z M98.666,98.998
		c8.836,0,16,7.164,16,16s-7.164,16-16,16s-16-7.164-16-16S89.83,98.998,98.666,98.998z M229.664,189.333
		c0,13.622-10.997,24.664-24.561,24.664H90.226c-13.565,0-24.561-11.042-24.561-24.664v-0.672c0-13.622,10.997-24.664,24.561-24.664
		h114.877c13.565,0,24.561,11.042,24.561,24.664V189.333z"/>
	<path style="fill:#FFB100;" d="M267.089,91.098c2.544,10.553,3.907,21.566,3.907,32.9c0,77.318-62.68,139.998-139.998,139.998
		c-28.032,0-54.131-8.251-76.022-22.44c23.88,23.744,56.766,38.44,93.022,38.44c72.784,0,131.998-59.214,131.998-131.998
		C279.996,127.636,275.358,108.337,267.089,91.098z"/>
	<path style="fill:#FFE454;" d="M160.76,31.457c28.006-1.021,54.381,6.269,76.771,19.645C213.985,29.328,182.521,16,147.998,16
		C75.214,16,16,75.214,16,147.998c0,22.05,5.442,42.849,15.042,61.138c-2.917-10.434-4.674-21.369-5.087-32.673
		C23.139,99.196,83.492,34.273,160.76,31.457z"/>
	<path d="M147.998,0C66.392,0,0,66.392,0,147.998s66.392,147.998,147.998,147.998s147.998-66.392,147.998-147.998
		S229.604,0,147.998,0z M147.998,279.996c-36.257,0-69.143-14.696-93.022-38.44c-9.536-9.482-17.631-20.41-23.934-32.42
		C21.442,190.847,16,170.048,16,147.998C16,75.214,75.214,16,147.998,16c34.523,0,65.987,13.328,89.533,35.102
		c12.208,11.288,22.289,24.844,29.558,39.996c8.27,17.239,12.907,36.538,12.907,56.9
		C279.996,220.782,220.782,279.996,147.998,279.996z"/>
	<path style="fill:#FFFFFF;" d="M213.664,189.333v-0.339c0-4.777-3.451-8.997-8.229-8.997h-0.438H90.559
		c-4.777,0-8.894,4.22-8.894,8.997v0.339c0,4.777,4.117,8.664,8.894,8.664h114.877C210.213,197.997,213.664,194.11,213.664,189.333z
		"/>
	<path d="M229.664,188.661c0-13.622-10.997-24.664-24.561-24.664H90.226c-13.565,0-24.562,11.042-24.562,24.664v0.672
		c0,13.622,10.997,24.664,24.562,24.664h114.877c13.565,0,24.561-11.042,24.561-24.664V188.661z M81.664,189.333v-0.339
		c0-4.777,4.117-8.997,8.894-8.997h114.439h0.438c4.777,0,8.229,4.22,8.229,8.997v0.339c0,4.777-3.451,8.664-8.229,8.664H90.559
		C85.781,197.997,81.664,194.11,81.664,189.333z"/>
	<circle cx="98.666" cy="114.998" r="16"/>
	<circle cx="197.666" cy="114.998" r="16"/>
</g>
<g>
</g>
<g>
</g>
<g>
</g>
<g>
</g>
<g>
</g>
<g>
</g>
<g>
</g>
<g>
</g>
<g>
</g>
<g>
</g>
<g>
</g>
<g>
</g>
<g>
</g>
<g>
</g>
<g>
</g>
</svg>
