<?xml version="1.0" encoding="iso-8859-1"?>
<!-- Generator: Adobe Illustrator 19.0.0, SVG Export Plug-In . SVG Version: 6.00 Build 0)  -->
<svg version="1.1" id="Layer_1" xmlns="http://www.w3.org/2000/svg" xmlns:xlink="http://www.w3.org/1999/xlink" x="0px" y="0px"
	 viewBox="0 0 295.996 295.996" style="enable-background:new 0 0 295.996 295.996;" xml:space="preserve">
<g>
	<path style="fill:#FFCE00;" d="M237.531,51.102c-22.391-13.376-48.766-20.666-76.771-19.645
		c-41.48,1.512-78.08,20.929-102.654,50.54c8.729,0,17.968,0,24.537,0c19.03,0,35.492,10.714,43.689,26.457
		c5.694-5.225,13.308-8.367,21.665-8.367c8.336,0,15.932,3.126,21.622,8.326c8.227-15.721,24.719-26.416,43.732-26.416
		c14.039,0,40.254,0,47.646,0c0.524,0,0.955,0,1.278,0C255.604,70.488,247.239,60.079,237.531,51.102z"/>
	<path style="fill:#FFCE00;" d="M270.996,123.998c0-8.887-0.843-17.575-2.428-26.001h-5.904c0,11.577,0,26.315,0,33.001
		c0,27.232-22.081,49.391-49.313,49.391c-26.948,0-48.834-21.552-49.29-48.392h-0.155c0-9-7.137-15.91-15.909-15.91
		s-15.909,6.91-15.909,15.91h-0.238c-0.454,26.838-22.591,48.313-49.539,48.313c-27.231,0-49.646-22.08-49.646-49.313
		c0-1.086,0-2.389,0-3.852c-5,15.457-7.504,32.078-6.875,49.316c0.412,11.304,2.253,22.239,5.17,32.673
		c6.303,12.01,14.439,22.938,23.975,32.42c21.892,14.189,48.011,22.44,76.043,22.44
		C208.296,263.996,270.996,201.316,270.996,123.998z M84.151,202.107l11.811-10.793c13.331,14.588,32.296,22.954,52.034,22.954
		s38.704-8.366,52.036-22.954l11.811,10.793c-16.355,17.896-39.626,28.161-63.847,28.161S100.505,220.003,84.151,202.107z"/>
	<path style="fill:#FFB100;" d="M270.15,97.997h-1.582c1.585,8.426,2.428,17.114,2.428,26.001
		c0,77.318-62.68,139.998-139.998,139.998c-28.032,0-54.131-8.251-76.022-22.44c23.88,23.744,56.767,38.44,93.022,38.44
		c72.784,0,131.998-59.214,131.998-131.998C279.996,130.31,276.49,113.427,270.15,97.997z"/>
	<path style="fill:#FFE454;" d="M160.76,31.457c28.006-1.021,54.381,6.269,76.771,19.645C213.985,29.328,182.521,16,147.998,16
		C99.241,16,56.577,42.574,33.721,81.997c0.323,0,0.753,0,1.276,0c3.933,0,13.184,0,23.108,0
		C82.68,52.386,119.279,32.969,160.76,31.457z"/>
	<path style="fill:#FFE454;" d="M32.664,127.146c0-7.543,0-19.452,0-29.149h-6.818C19.506,113.427,16,130.31,16,147.998
		c0,22.05,5.442,42.849,15.042,61.138c-2.917-10.434-4.841-21.369-5.253-32.673C25.16,159.225,27.664,142.604,32.664,127.146z"/>
	<path d="M147.998,0C66.392,0,0,66.392,0,147.998s66.392,147.998,147.998,147.998s147.998-66.392,147.998-147.998
		S229.605,0,147.998,0z M147.998,279.996c-36.256,0-69.143-14.696-93.022-38.44c-9.536-9.482-17.631-20.41-23.934-32.42
		C21.442,190.847,16,170.048,16,147.998c0-17.688,3.506-34.571,9.846-50.001h6.818c0,9.697,0,21.606,0,29.149
		c0,1.463,0,2.766,0,3.852c0,27.232,22.415,49.313,49.646,49.313c26.948,0,49.085-21.476,49.539-48.313h0.238
		c0-9,7.137-15.91,15.909-15.91s15.909,6.91,15.909,15.91h0.155c0.456,26.84,22.341,48.392,49.29,48.392
		c27.231,0,49.313-22.158,49.313-49.391c0-6.686,0-21.424,0-33.001h5.904h1.582c6.34,15.43,9.846,32.313,9.846,50.001
		C279.996,220.782,220.782,279.996,147.998,279.996z M213.352,81.997c-19.014,0-35.505,10.695-43.732,26.416
		c-5.691-5.2-13.286-8.326-21.622-8.326c-8.357,0-15.971,3.143-21.665,8.367c-8.197-15.743-24.659-26.457-43.689-26.457
		c-6.569,0-15.808,0-24.537,0c-9.925,0-19.176,0-23.108,0c-0.523,0-0.953,0-1.276,0C56.577,42.574,99.241,16,147.998,16
		c34.523,0,65.987,13.328,89.533,35.102c9.708,8.978,18.072,19.387,24.744,30.896c-0.323,0-0.754,0-1.278,0
		C253.605,81.997,227.391,81.997,213.352,81.997z"/>
	<path d="M211.843,202.107l-11.811-10.793c-13.332,14.588-32.298,22.954-52.036,22.954s-38.703-8.366-52.034-22.954l-11.811,10.793
		c16.354,17.896,39.624,28.161,63.845,28.161S195.488,220.003,211.843,202.107z"/>
</g>
<g>
</g>
<g>
</g>
<g>
</g>
<g>
</g>
<g>
</g>
<g>
</g>
<g>
</g>
<g>
</g>
<g>
</g>
<g>
</g>
<g>
</g>
<g>
</g>
<g>
</g>
<g>
</g>
<g>
</g>
</svg>
