<?xml version="1.0" encoding="iso-8859-1"?>
<!-- Generator: Adobe Illustrator 19.0.0, SVG Export Plug-In . SVG Version: 6.00 Build 0)  -->
<svg version="1.1" id="Layer_1" xmlns="http://www.w3.org/2000/svg" xmlns:xlink="http://www.w3.org/1999/xlink" x="0px" y="0px"
	 viewBox="0 0 295.996 295.996" style="enable-background:new 0 0 295.996 295.996;" xml:space="preserve">
<g>
	<path style="fill:#FFCE00;" d="M270.996,123.998c0-11.334-1.363-22.348-3.907-32.9c-7.269-15.152-17.35-28.708-29.558-39.996
		c-22.391-13.376-48.766-20.666-76.771-19.645C83.492,34.273,23.139,99.196,25.955,176.463c0.412,11.304,2.17,22.239,5.087,32.673
		c6.303,12.01,14.397,22.938,23.934,32.42c21.892,14.189,47.99,22.44,76.022,22.44C208.316,263.996,270.996,201.316,270.996,123.998
		z M81.664,189.333v-0.339c0-2.946,0.68-5.786,1.621-8.43c-1.61,0.279-3.18,0.433-4.87,0.433c-15.926,0-28.792-12.909-28.792-28.834
		c0-15.924,12.929-28.833,28.855-28.833c8.411,0,15.989,3.604,21.259,9.349l13.987-13.98L95.785,100.76l11.314-11.315l29.256,29.253
		l-29.254,29.255l-0.093-0.093c0.21,1.404,0.321,2.84,0.321,4.303c0,4.248-0.926,8.277-2.575,11.909
		c0.596-0.045,1.196-0.075,1.804-0.075h82.877c0.607,0,1.208,0.03,1.804,0.075c-1.649-3.632-2.575-7.661-2.575-11.909
		c0-1.463,0.111-2.898,0.321-4.303l-0.093,0.093l-29.254-29.255l29.255-29.253l11.313,11.315l-17.94,17.938l13.981,13.98
		c5.27-5.745,12.839-9.349,21.251-9.349c15.924,0,28.832,12.909,28.832,28.833c0,15.925-12.908,28.834-28.832,28.834
		c-1.69,0-3.51-0.154-5.122-0.433c0.94,2.643,1.288,5.483,1.288,8.43v0.339c0,13.621-10.607,24.664-24.229,24.664h-82.877
		C92.938,213.997,81.664,202.954,81.664,189.333z"/>
	<path style="fill:#FFB100;" d="M267.089,91.098c2.544,10.553,3.907,21.566,3.907,32.9c0,77.318-62.68,139.998-139.998,139.998
		c-28.032,0-54.131-8.251-76.022-22.44c23.88,23.744,56.767,38.44,93.022,38.44c72.784,0,131.998-59.214,131.998-131.998
		C279.996,127.636,275.358,108.337,267.089,91.098z"/>
	<path style="fill:#FFE454;" d="M160.76,31.457c28.006-1.021,54.381,6.269,76.771,19.645C213.985,29.328,182.521,16,147.998,16
		C75.214,16,16,75.214,16,147.998c0,22.05,5.442,42.849,15.042,61.138c-2.917-10.434-4.675-21.369-5.087-32.673
		C23.139,99.196,83.492,34.273,160.76,31.457z"/>
	<path d="M147.998,0C66.392,0,0,66.392,0,147.998s66.392,147.998,147.998,147.998s147.998-66.392,147.998-147.998
		S229.605,0,147.998,0z M147.998,279.996c-36.256,0-69.143-14.696-93.022-38.44c-9.536-9.482-17.631-20.41-23.934-32.42
		C21.442,190.847,16,170.048,16,147.998C16,75.214,75.214,16,147.998,16c34.523,0,65.987,13.328,89.533,35.102
		c12.208,11.288,22.289,24.844,29.558,39.996c8.27,17.239,12.907,36.538,12.907,56.9
		C279.996,220.782,220.782,279.996,147.998,279.996z"/>
	<path style="fill:#FF9E00;" d="M104.755,164.072c1.649-3.632,2.575-7.661,2.575-11.909c0-1.463-0.111-2.898-0.321-4.303
		l-11.222-11.222l3.96-3.96c-5.271-5.745-12.838-9.349-21.249-9.349c-15.926,0-28.834,12.909-28.834,28.833
		c0,15.925,12.908,28.834,28.834,28.834c1.689,0,3.343-0.153,4.953-0.433C86.663,171.53,94.876,164.809,104.755,164.072z"/>
	<path style="fill:#FF9E00;" d="M212.543,180.564c1.611,0.278,3.265,0.433,4.955,0.433c15.924,0,28.832-12.909,28.832-28.834
		c0-15.924-12.908-28.833-28.832-28.833c-8.412,0-15.98,3.604-21.251,9.349l3.96,3.96l-11.222,11.222
		c-0.21,1.404-0.321,2.84-0.321,4.303c0,4.248,0.926,8.277,2.575,11.909C201.118,164.809,209.331,171.53,212.543,180.564z"/>
	<polygon points="107.009,147.86 107.102,147.953 136.355,118.698 107.101,89.445 95.788,100.76 113.729,118.698 99.747,132.679 
		95.787,136.639 	"/>
	<polygon points="196.247,132.679 182.266,118.698 200.206,100.76 188.894,89.445 159.639,118.698 188.893,147.953 188.985,147.86 
		200.207,136.639 	"/>
	<path style="fill:#FFFFFF;" d="M197.664,189.333v-0.339c0-4.777-3.451-8.997-8.229-8.997h-0.438h-82.438
		c-4.777,0-8.895,4.22-8.895,8.997v0.339c0,4.777,4.117,8.664,8.895,8.664h82.877C194.213,197.997,197.664,194.11,197.664,189.333z"
		/>
	<path d="M213.664,189.333v-0.339c0-2.946-0.347-5.786-1.288-8.43c-3.212-9.034-11.342-15.756-21.22-16.492
		c-0.596-0.045-1.113-0.075-1.72-0.075h-82.877c-0.607,0-1.208,0.03-1.804,0.075c-9.879,0.736-18.258,7.458-21.47,16.492
		c-0.94,2.643-1.621,5.483-1.621,8.43v0.339c0,13.621,11.273,24.664,24.895,24.664h82.877
		C203.057,213.997,213.664,202.954,213.664,189.333z M97.664,189.333v-0.339c0-4.777,4.117-8.997,8.895-8.997h82.438h0.438
		c4.777,0,8.229,4.22,8.229,8.997v0.339c0,4.777-3.451,8.664-8.229,8.664h-82.877C101.781,197.997,97.664,194.11,97.664,189.333z"/>
</g>
<g>
</g>
<g>
</g>
<g>
</g>
<g>
</g>
<g>
</g>
<g>
</g>
<g>
</g>
<g>
</g>
<g>
</g>
<g>
</g>
<g>
</g>
<g>
</g>
<g>
</g>
<g>
</g>
<g>
</g>
</svg>
