<?xml version="1.0" encoding="iso-8859-1"?>
<!-- Generator: Adobe Illustrator 19.0.0, SVG Export Plug-In . SVG Version: 6.00 Build 0)  -->
<svg version="1.1" id="Layer_1" xmlns="http://www.w3.org/2000/svg" xmlns:xlink="http://www.w3.org/1999/xlink" x="0px" y="0px"
	 viewBox="0 0 296.258 296.258" style="enable-background:new 0 0 296.258 296.258;" xml:space="preserve">
<g>
	<path style="fill:#FFCE00;" d="M271.258,124.129c0-11.334-1.363-22.348-3.907-32.9c-7.269-15.152-17.35-28.708-29.558-39.996
		c-22.391-13.376-48.766-20.666-76.772-19.645C88.909,34.216,31.538,90.942,26.491,161.311c4.868-5.279,8.536-8.771,8.766-8.989
		l5.503-5.216l5.504,5.217c0.349,0.331,8.655,8.231,17.07,18.531c12.235,14.977,18.184,26.889,18.184,36.416
		c0,16.041-9.317,29.942-22.821,36.59c21.16,12.856,45.993,20.268,72.564,20.268C208.578,264.127,271.258,201.447,271.258,124.129z
		 M197.759,147.128c-8.836,0-16-7.164-16-16s7.164-16,16-16s16,7.164,16,16S206.595,147.128,197.759,147.128z M185.166,69.223
		l50.672,21.944l-6.359,14.682l-50.672-21.944L185.166,69.223z M67.039,105.849L60.68,91.167l50.672-21.944l6.359,14.682
		L67.039,105.849z M82.759,131.128c0-8.836,7.164-16,16-16s16,7.164,16,16s-7.164,16-16,16S82.759,139.964,82.759,131.128z
		 M107.535,214.309l-11.812-10.793c13.457-14.726,32.606-23.172,52.536-23.172s39.077,8.445,52.534,23.172l-11.811,10.793
		c-10.434-11.417-25.276-17.965-40.724-17.965C132.811,196.344,117.968,202.893,107.535,214.309z"/>
	<path style="fill:#FFB100;" d="M267.351,91.229c2.544,10.553,3.907,21.566,3.907,32.9c0,77.318-62.68,139.998-139.998,139.998
		c-26.57,0-51.403-7.412-72.564-20.268c-0.269,0.132-0.539,0.258-0.81,0.384c23.636,22.236,55.438,35.884,90.374,35.884
		c72.784,0,131.998-59.214,131.998-131.998C280.258,127.767,275.62,108.468,267.351,91.229z"/>
	<path style="fill:#FFE454;" d="M161.021,31.588c28.006-1.021,54.381,6.269,76.772,19.645
		c-23.546-21.773-55.01-35.102-89.533-35.102c-72.784,0-131.998,59.214-131.998,131.998c0,7.733,0.675,15.311,1.957,22.684
		c2.879-3.523,5.736-6.751,8.272-9.502C31.538,90.942,88.909,34.216,161.021,31.588z"/>
	<path d="M148.26,0.131C66.653,0.131,0.262,66.522,0.262,148.128c0,14,1.955,27.553,5.604,40.398C1.939,195.632,0,201.839,0,207.27
		c0,21.927,17.407,39.857,39.127,40.718c27.078,29.567,65.976,48.14,109.133,48.14c81.606,0,147.998-66.392,147.998-147.998
		C296.258,66.522,229.866,0.131,148.26,0.131z M148.26,280.127c-34.936,0-66.738-13.647-90.374-35.884
		c0.271-0.126,0.542-0.252,0.81-0.384c13.504-6.647,22.821-20.549,22.821-36.59c0-9.527-5.948-21.439-18.184-36.416
		c-8.415-10.3-16.722-18.2-17.07-18.531l-5.504-5.217l-5.503,5.216c-0.229,0.218-3.897,3.71-8.766,8.989
		c-2.536,2.751-5.393,5.979-8.272,9.502c-1.282-7.372-1.957-14.95-1.957-22.684c0-72.784,59.214-131.998,131.998-131.998
		c34.523,0,65.987,13.328,89.533,35.102C250,62.52,260.081,76.076,267.35,91.228c8.27,17.239,12.907,36.538,12.907,56.9
		C280.258,220.912,221.044,280.127,148.26,280.127z M16,207.27c0-8.673,13.101-25.674,24.763-37.847
		c11.659,12.161,24.755,29.153,24.755,37.847c0,13.652-11.107,24.76-24.758,24.76C27.107,232.029,16,220.921,16,207.27z"/>
	<circle cx="98.759" cy="131.128" r="16"/>
	<circle cx="197.759" cy="131.128" r="16"/>
	
		<rect x="179.705" y="79.532" transform="matrix(-0.9176 -0.3974 0.3974 -0.9176 362.7666 250.2433)" width="55.218" height="15.999"/>
	
		<rect x="61.583" y="79.532" transform="matrix(-0.9176 0.3974 -0.3974 -0.9176 205.8242 132.4075)" width="55.218" height="15.999"/>
	<path style="fill:#28E0FF;" d="M40.76,232.029c13.651,0,24.758-11.107,24.758-24.76c0-8.693-13.096-25.686-24.755-37.847
		C29.101,181.595,16,198.596,16,207.27C16,220.921,27.107,232.029,40.76,232.029z"/>
	<path d="M188.983,214.309l11.811-10.793c-13.457-14.727-32.605-23.172-52.534-23.172c-19.931,0-39.079,8.446-52.536,23.172
		l11.812,10.793c10.433-11.417,25.276-17.965,40.725-17.965C163.707,196.344,178.55,202.893,188.983,214.309z"/>
</g>
<g>
</g>
<g>
</g>
<g>
</g>
<g>
</g>
<g>
</g>
<g>
</g>
<g>
</g>
<g>
</g>
<g>
</g>
<g>
</g>
<g>
</g>
<g>
</g>
<g>
</g>
<g>
</g>
<g>
</g>
</svg>
