<svg id="Capa_1" enable-background="new 0 0 512 512" height="512" viewBox="0 0 512 512" width="512" xmlns="http://www.w3.org/2000/svg"><g><g><g><path d="m490.326 194.879h-468.652v-39.741c0-12.917 10.471-23.388 23.388-23.388h421.875c12.917 0 23.388 10.471 23.388 23.388v39.741z" fill="#fee07d"/></g><g><path d="m21.674 173.459h468.651v21.42h-468.651z" fill="#ffc269"/></g><g><g><g><path d="m49.189 380.25c-6.521 0-11.58-5.712-10.814-12.211l15.532-147.184h34.099l-28.071 150.236c-.863 5.282-5.412 9.159-10.746 9.159z" fill="#ecbd83"/></g></g><g><g><path d="m462.811 380.25c6.521 0 11.58-5.712 10.814-12.211l-15.532-147.184h-34.099l28.071 150.235c.863 5.283 5.412 9.16 10.746 9.16z" fill="#ecbd83"/></g></g></g><g><g><g><path d="m88.01 220.859-3.84 20.53h-32.43l2.17-20.53z" fill="#d39667"/></g></g><g><g><path d="m460.26 241.389h-32.43l-3.84-20.53h34.1z" fill="#d39667"/></g></g></g><g><path d="m490.326 221.411h-468.652c-7.828 0-14.174-6.346-14.174-14.174v-.191c0-7.828 6.346-14.174 14.174-14.174h468.651c7.828 0 14.174 6.346 14.174 14.174v.191c.001 7.827-6.345 14.174-14.173 14.174z" fill="#5d5260"/></g><g><path d="m53.91 220.859h34.1l-3.84 20.53h-32.43z" fill="#d39667"/></g><g><path d="m460.26 241.389h-32.43l-3.84-20.53h34.1z" fill="#d39667"/></g></g><path d="m497.826 186.71v-31.948c0-16.825-13.688-30.513-30.513-30.513h-422.625c-16.825 0-30.513 13.688-30.513 30.513v31.948c-8.267 3.059-14.175 11.02-14.175 20.336v.19c0 11.951 9.723 21.674 21.674 21.674h23.896l-14.643 138.291c-.616 5.213 1.03 10.452 4.517 14.376 3.486 3.923 8.497 6.173 13.745 6.173 9.019 0 16.628-6.436 18.131-15.317l26.91-143.522h323.538l26.91 143.522c1.503 8.882 9.113 15.317 18.131 15.317 5.249 0 10.259-2.25 13.745-6.173 3.487-3.924 5.133-9.163 4.527-14.285l-8.132-76.79c-.437-4.119-4.128-7.093-8.249-6.668-4.119.436-7.104 4.129-6.668 8.248l8.142 76.881c.156 1.315-.455 2.225-.833 2.649-.377.425-1.209 1.138-2.533 1.138-1.668 0-3.075-1.194-3.345-2.841-.009-.057-.02-.112-.03-.168l-26.402-140.831h18.315l3.75 35.417c.437 4.119 4.142 7.099 8.248 6.668 4.119-.436 7.105-4.129 6.669-8.248l-3.583-33.837h23.896c11.951 0 21.674-9.723 21.674-21.674v-.19c0-9.316-5.908-17.277-14.174-20.336zm-445.263 183.031c-.01.056-.021.111-.03.168-.27 1.646-1.676 2.841-3.345 2.841-1.324 0-2.156-.713-2.533-1.138-.378-.425-.988-1.334-.822-2.74l14.821-139.962h18.315zm444.437-162.505c0 3.68-2.994 6.674-6.674 6.674h-468.652c-3.68 0-6.674-2.994-6.674-6.674v-.19c0-3.681 2.994-6.675 6.674-6.675h48.201c4.142 0 7.5-3.357 7.5-7.5s-3.358-7.5-7.5-7.5h-40.701v-30.608c0-8.554 6.959-15.513 15.513-15.513h422.625c8.554 0 15.513 6.959 15.513 15.513v30.608h-379.044c-4.142 0-7.5 3.357-7.5 7.5s3.358 7.5 7.5 7.5h386.545c3.68 0 6.674 2.994 6.674 6.675z"/></g></svg>