<?xml version="1.0"?>
<svg xmlns="http://www.w3.org/2000/svg" xmlns:xlink="http://www.w3.org/1999/xlink" version="1.1" id="Capa_1" x="0px" y="0px" viewBox="0 0 480 480" style="enable-background:new 0 0 480 480;" xml:space="preserve" width="512px" height="512px" class=""><g><path style="fill:#003090" d="M392,8h-88c0,35.346-28.654,64-64,64s-64-28.654-64-64H88L8,88v96h80v288h304V184h80V88L392,8z   M360,176.064L336,192l-24-16.888V144h48V176.064z" data-original="#FF9275" class="" data-old_color="#FF9275"/><path style="fill:#58595B;" d="M240,72c35.346,0,64-28.654,64-64H176C176,43.346,204.654,72,240,72z" data-original="#58595B"/><g>
	<path style="fill:#FDBE11" d="M8,184h80v32H8V184z" data-original="#FBB040" class="active-path" data-old_color="#FBB040"/>
	<path style="fill:#FDBE11" d="M392,184h80v32h-80V184z" data-original="#FBB040" class="active-path" data-old_color="#FBB040"/>
</g><path style="fill:#FDBE11" d="M312,175.112L336,192l24-15.936V144h-48V175.112z" data-original="#FFEB99" class="" data-old_color="#FFEB99"/><g>
	<path style="fill:#353535;" d="M477.656,82.344l-80-80C396.156,0.844,394.122,0,392,0H88c-2.122,0-4.156,0.844-5.656,2.344l-80,80   C0.844,83.844,0,85.878,0,88v128c0,4.418,3.582,8,8,8h72v248c0,4.418,3.582,8,8,8h304c4.418,0,8-3.582,8-8V224h72   c4.418,0,8-3.582,8-8V88C480,85.878,479.156,83.844,477.656,82.344z M295.36,16c-4.391,30.574-32.736,51.8-63.311,47.409   C207.475,59.88,188.169,40.574,184.64,16H295.36z M16,208v-16h64v16H16z M384,464H96V120H80v56H16V91.312L91.312,16H104v24h16V16   h16v24h16V16h16.472c4.546,39.504,40.255,67.843,79.759,63.297c33.245-3.825,59.472-30.052,63.297-63.297H328v24h16V16h16v24h16V16   h12.688L464,91.312V176h-64v-56h-16V464z M464,208h-64v-16h64V208z" data-original="#353535" class=""/>
	<path style="fill:#353535;" d="M360,136h-48c-4.418,0-8,3.582-8,8v31.112c-0.001,2.603,1.264,5.045,3.392,6.544l24,16.888   c2.698,1.898,6.285,1.946,9.032,0.12l24-15.936c2.233-1.482,3.576-3.984,3.576-6.664V144C368,139.582,364.418,136,360,136z    M352,171.776l-15.864,10.536L320,170.96V152h32V171.776z" data-original="#353535" class=""/>
	<path style="fill:#353535;" d="M328,112h16v16h-16V112z" data-original="#353535" class=""/>
	<path style="fill:#353535;" d="M352,112h16v16h-16V112z" data-original="#353535" class=""/>
	<path style="fill:#353535;" d="M304,112h16v16h-16V112z" data-original="#353535" class=""/>
</g></g> </svg>
