<?xml version="1.0"?>
<svg xmlns="http://www.w3.org/2000/svg" xmlns:xlink="http://www.w3.org/1999/xlink" version="1.1" id="Layer_1" x="0px" y="0px" viewBox="0 0 512 512" style="enable-background:new 0 0 512 512;" xml:space="preserve" width="512px" height="512px" class=""><g transform="matrix(3.06162e-16 1 -1 3.06162e-16 512 -1.13687e-13)"><g>
	<g>
		<path d="M256,0C114.844,0,0,114.839,0,256s114.844,256,256,256s256-114.839,256-256S397.156,0,256,0z M398.825,269.916    L213.273,392.998c-2.838,1.88-6.045,2.783-9.219,2.783c-5.404,0-10.709-2.621-13.927-7.469c-5.099-7.686-3-18.047,4.686-23.146    L359.381,256L194.813,146.835c-7.686-5.099-9.785-15.46-4.686-23.146c5.121-7.686,15.492-9.773,23.146-4.686l185.551,123.081    c4.664,3.093,7.469,8.317,7.469,13.916C406.294,261.599,403.488,266.823,398.825,269.916z" data-original="#000000" class="active-path" data-old_color="#000000" fill="#963DFF"/>
	</g>
</g></g> </svg>
