<svg id="Capa_1" enable-background="new 0 0 512 512" height="512" viewBox="0 0 512 512" width="512" xmlns="http://www.w3.org/2000/svg"><g><g><path d="m32.906 314.511v122.375c0 3.314 2.686 6 6 6h25.62c3.314 0 6-2.686 6-6v-122.375c0-3.314-2.686-6-6-6h-25.62c-3.313 0-6 2.687-6 6z" fill="#935b44"/><path d="m441.473 314.511v122.375c0 3.314 2.686 6 6 6h25.62c3.314 0 6-2.686 6-6v-122.375c0-3.314-2.686-6-6-6h-25.62c-3.313 0-6 2.687-6 6z" fill="#935b44"/><path d="m441.473 314.763h37.62v49.859h-37.62z" fill="#87523e"/><path d="m32.906 314.763h37.62v49.859h-37.62z" fill="#87523e"/><g fill="#7c4b37"><path d="m331.08 197.109h192.574v35h-192.574z" transform="matrix(0 1 -1 0 641.976 -212.758)"/><path d="m-11.654 197.109h192.574v35h-192.574z" transform="matrix(0 1 -1 0 299.242 129.976)"/></g><path d="m495.5 333.441h-479c-4.971 0-9-4.029-9-9v-31.859c0-4.971 4.029-9 9-9h479c4.971 0 9 4.029 9 9v31.859c0 4.97-4.029 9-9 9z" fill="#bc7c63"/><path d="m469.924 149.114h-427.848c-4.418 0-8-3.582-8-8v-64c0-4.418 3.582-8 8-8h427.849c4.418 0 8 3.582 8 8v64c-.001 4.418-3.582 8-8.001 8z" fill="#aa6a51"/><path d="m469.924 255.153h-427.848c-4.418 0-8-3.582-8-8v-64c0-4.418 3.582-8 8-8h427.849c4.418 0 8 3.582 8 8v64c-.001 4.418-3.582 8-8.001 8z" fill="#aa6a51"/><path d="m495.5 333.441h-479c-4.971 0-9-4.029-9-9v-31.859c0-4.971 4.029-9 9-9h479c4.971 0 9 4.029 9 9v31.859c0 4.97-4.029 9-9 9z" fill="#bc7c63"/><g fill="#aa6a51"><path d="m469.924 149.114h-427.848c-4.418 0-8-3.582-8-8v-64c0-4.418 3.582-8 8-8h427.849c4.418 0 8 3.582 8 8v64c-.001 4.418-3.582 8-8.001 8z"/><path d="m469.924 255.153h-427.848c-4.418 0-8-3.582-8-8v-64c0-4.418 3.582-8 8-8h427.849c4.418 0 8 3.582 8 8v64c-.001 4.418-3.582 8-8.001 8z"/><path d="m495.5 283.582h-39.685c4.971 0 9 4.03 9 9v31.859c0 4.971-4.029 9-9 9h39.685c4.971 0 9-4.029 9-9v-31.859c0-4.971-4.029-9-9-9z"/></g><path d="m495.5 333.441h-479c-4.971 0-9-4.029-9-9v-31.859c0-4.971 4.029-9 9-9h479c4.971 0 9 4.029 9 9v31.859c0 4.97-4.029 9-9 9z" fill="#bc7c63"/><path d="m469.924 69.114h-427.848c-4.418 0-8 3.582-8 8v3.339h404.667c4.418 0 8 3.582 8 8v60.661h23.181c4.418 0 8-3.582 8-8v-64c0-4.419-3.581-8-8-8z" fill="#935b44"/><path d="m469.924 175.153h-427.848c-4.418 0-8 3.582-8 8v3.339h404.667c4.418 0 8 3.582 8 8v60.661h23.181c4.418 0 8-3.582 8-8v-64c0-4.419-3.581-8-8-8z" fill="#935b44"/></g><path d="m495.5 276.082h-42.898v-13.429h17.322c8.547 0 15.5-6.953 15.5-15.5v-64c0-8.547-6.953-15.5-15.5-15.5h-17.322v-11.039h17.322c8.547 0 15.5-6.953 15.5-15.5v-64c0-8.547-6.953-15.5-15.5-15.5h-62.009c-4.143 0-7.5 3.358-7.5 7.5s3.357 7.5 7.5 7.5h62.009c.275 0 .5.224.5.5v64c0 .276-.225.5-.5.5-3.308 0-423.976 0-427.848 0-.275 0-.5-.224-.5-.5v-64c0-.276.225-.5.5-.5h330.839c4.143 0 7.5-3.358 7.5-7.5s-3.357-7.5-7.5-7.5h-330.839c-8.547 0-15.5 6.953-15.5 15.5v64c0 8.547 6.953 15.5 15.5 15.5h17.557v11.039h-17.557c-8.547 0-15.5 6.953-15.5 15.5v64c0 8.547 6.953 15.5 15.5 15.5h17.557v13.429h-43.133c-9.099 0-16.5 7.402-16.5 16.5v31.859c0 9.098 7.401 16.5 16.5 16.5h8.906v95.946c0 7.444 6.056 13.5 13.5 13.5h25.62c7.444 0 13.5-6.056 13.5-13.5v-95.947h62.474c4.143 0 7.5-3.358 7.5-7.5s-3.357-7.5-7.5-7.5c-105.305 0-90.272 0-124 0-.827 0-1.5-.673-1.5-1.5v-31.859c0-.827.673-1.5 1.5-1.5h479c.827 0 1.5.673 1.5 1.5v31.859c0 .715-.484 1.22-.964 1.404-.004.001-.007.002-.011.004-.164.061-.341.092-.525.092-9.219 0-309.426 0-320 0-4.143 0-7.5 3.358-7.5 7.5s3.357 7.5 7.5 7.5h258.474v95.946c0 7.444 6.056 13.5 13.5 13.5h25.62c7.444 0 13.5-6.056 13.5-13.5v-95.946h8.906c9.238 0 16.5-7.569 16.5-16.5v-31.859c0-9.098-7.401-16.499-16.5-16.499zm-432.474 64.858v94.446h-22.62v-94.446zm374.576-184.326v11.039h-20.234v-11.039zm-342.969 0v11.039h-20v-11.039zm15 0h292.734v11.039h-292.734zm-68.057 90.539v-64c0-.276.225-.5.5-.5h427.848c.275 0 .5.224.5.5v64c0 .276-.225.5-.5.5-17.675 0-410.046 0-427.848 0-.275 0-.5-.224-.5-.5zm360.791 15.5v13.429h-292.734v-13.429zm-327.734 13.429v-13.429h20v13.429zm342.734 0v-13.429h20.234v13.429zm54.227 159.304h-22.62v-94.446h22.62z"/></g></svg>