<?xml version="1.0"?>
<svg xmlns="http://www.w3.org/2000/svg" height="512px" viewBox="0 0 490.66667 490.66667" width="512px" class=""><g><path d="m490.667969 245.332031c0 135.496094-109.839844 245.335938-245.335938 245.335938-135.492187 0-245.332031-109.839844-245.332031-245.335938 0-135.492187 109.839844-245.332031 245.332031-245.332031 135.496094 0 245.335938 109.839844 245.335938 245.332031zm0 0" fill="#009688" data-original="#009688" class="" style="fill:#E34A33" data-old_color="#009688"/><path d="m245.332031 490.667969c-135.273437 0-245.332031-110.058594-245.332031-245.335938 0-135.273437 110.058594-245.332031 245.332031-245.332031 135.277344 0 245.335938 110.058594 245.335938 245.332031 0 135.277344-110.058594 245.335938-245.335938 245.335938zm0-469.335938c-123.519531 0-224 100.480469-224 224s100.480469 224 224 224 224-100.480469 224-224-100.480469-224-224-224zm0 0" data-original="#000000" class="active-path" style="fill:#000000" data-old_color="#000000"/><path d="m256 362.667969h-21.332031c-35.285157 0-64-28.714844-64-64v-106.667969c0-35.285156 28.714843-64 64-64h21.332031c35.285156 0 64 28.714844 64 64v10.667969c0 5.886719-4.777344 10.664062-10.667969 10.664062-5.886719 0-10.664062-4.777343-10.664062-10.664062v-10.667969c0-23.53125-19.136719-42.667969-42.667969-42.667969h-21.332031c-23.53125 0-42.667969 19.136719-42.667969 42.667969v106.667969c0 23.53125 19.136719 42.664062 42.667969 42.664062h21.332031c23.53125 0 42.667969-19.132812 42.667969-42.664062v-10.667969c0-5.886719 4.777343-10.667969 10.664062-10.667969 5.890625 0 10.667969 4.78125 10.667969 10.667969v10.667969c0 35.285156-28.714844 64-64 64zm0 0" data-original="#000000" class="active-path" style="fill:#000000" data-old_color="#000000"/></g> </svg>
