<?xml version="1.0" encoding="iso-8859-1"?>
<!-- Generator: Adobe Illustrator 19.0.0, SVG Export Plug-In . SVG Version: 6.00 Build 0)  -->
<svg version="1.1" id="Capa_1" xmlns="http://www.w3.org/2000/svg" xmlns:xlink="http://www.w3.org/1999/xlink" x="0px" y="0px"
	 viewBox="0 0 60 60" style="enable-background:new 0 0 60 60;" xml:space="preserve">
<g>
	<g>
		<path d="M59.848,23.97l-10-16c-0.104-0.166-0.255-0.299-0.434-0.38l-7.635-3.471c-0.001,0-0.001-0.001-0.002-0.001L38.414,2.59
			c-0.28-0.128-0.602-0.119-0.875,0.022c-0.271,0.142-0.465,0.4-0.521,0.701c-1.24,6.54-5.776,7.581-7.107,7.746
			c-0.012,0.001-0.023-0.005-0.035-0.003c-0.202,0.026-0.34,0.035-0.339,0.036c-0.01,0-0.035-0.002-0.06-0.004
			c-0.011-0.001-0.018-0.001-0.032-0.002c-0.029-0.002-0.074-0.008-0.115-0.013c-0.027-0.003-0.05-0.005-0.082-0.01
			c-0.044-0.006-0.101-0.017-0.154-0.026c-0.043-0.007-0.081-0.013-0.129-0.023c-0.056-0.012-0.123-0.029-0.185-0.044
			c-0.056-0.014-0.108-0.025-0.169-0.042c-0.067-0.018-0.142-0.045-0.213-0.067c-0.067-0.021-0.131-0.04-0.203-0.066
			c-0.073-0.026-0.153-0.062-0.231-0.093c-0.078-0.032-0.154-0.06-0.235-0.097c-0.079-0.036-0.163-0.083-0.245-0.125
			c-0.085-0.044-0.169-0.083-0.257-0.133c-0.084-0.048-0.171-0.108-0.257-0.162c-0.09-0.057-0.179-0.109-0.271-0.174
			c-0.086-0.061-0.174-0.135-0.262-0.203c-0.093-0.073-0.186-0.139-0.28-0.22c-0.087-0.075-0.174-0.166-0.261-0.249
			c-0.094-0.09-0.188-0.173-0.282-0.272c-0.087-0.092-0.172-0.202-0.258-0.302c-0.092-0.108-0.185-0.208-0.275-0.327
			c-0.085-0.111-0.166-0.242-0.249-0.362c-0.088-0.128-0.177-0.247-0.262-0.385c-0.081-0.133-0.157-0.287-0.235-0.43
			c-0.081-0.148-0.165-0.286-0.242-0.446c-0.081-0.167-0.153-0.357-0.229-0.537c-0.067-0.16-0.139-0.308-0.202-0.478
			c-0.08-0.214-0.149-0.456-0.222-0.688c-0.05-0.161-0.106-0.307-0.153-0.476c-0.114-0.414-0.216-0.854-0.305-1.322
			c-0.057-0.301-0.25-0.56-0.521-0.701c-0.272-0.142-0.595-0.15-0.875-0.022l-3.363,1.528c-0.001,0-0.001,0.001-0.002,0.001
			l-7.635,3.47c-0.179,0.081-0.33,0.214-0.434,0.38l-10,16c-0.275,0.44-0.168,1.019,0.248,1.33l8,6
			c0.421,0.317,1.018,0.251,1.358-0.149L14,26.203V56.5c0,0.553,0.447,1,1,1h30c0.553,0,1-0.447,1-1V26.62l3.187,4.461
			c0.313,0.438,0.92,0.55,1.368,0.251l9-6C60.005,25.032,60.135,24.429,59.848,23.97z M38.708,4.92l1.094,0.497l0.759,0.345
			l2.025,5.737h-7.911C36.226,10.346,37.821,8.355,38.708,4.92z M19.438,5.763l1.854-0.843c0.121,0.468,0.257,0.904,0.402,1.32
			c0.049,0.14,0.103,0.267,0.155,0.401c0.102,0.266,0.205,0.527,0.315,0.771c0.066,0.145,0.134,0.281,0.203,0.418
			c0.105,0.212,0.213,0.419,0.324,0.614c0.075,0.132,0.151,0.26,0.229,0.385c0.113,0.181,0.228,0.354,0.346,0.52
			c0.08,0.114,0.16,0.228,0.242,0.335c0.124,0.161,0.25,0.31,0.376,0.456c0.079,0.091,0.156,0.186,0.235,0.272
			c0.151,0.162,0.304,0.308,0.457,0.451c0.07,0.065,0.138,0.134,0.208,0.195c0.181,0.159,0.363,0.307,0.545,0.442h-7.916
			L19.438,5.763z M44,55.5H16v-3h28V55.5z M44,50.5H16v-1h28V50.5z M50.251,29.131l-4.438-6.212
			c-0.252-0.354-0.704-0.503-1.119-0.371C44.281,22.681,44,23.066,44,23.5v24H16v-24c0-0.419-0.261-0.793-0.653-0.938
			c-0.394-0.146-0.834-0.031-1.105,0.287L8.85,29.138l-6.516-4.887l9.354-14.966l5.223-2.374l-1.855,5.256
			c-0.107,0.307-0.061,0.646,0.127,0.91C15.371,13.343,15.676,13.5,16,13.5h14h14c0.324,0,0.629-0.157,0.816-0.423
			c0.188-0.265,0.234-0.604,0.127-0.91l-1.855-5.256l5.223,2.374l9.326,14.922L50.251,29.131z"/>
		<path d="M37,26c0-3.032-2.468-5.5-5.5-5.5h-3c-3.032,0-5.5,2.468-5.5,5.5c0,1.86,0.931,3.504,2.348,4.5
			C23.93,31.496,23,33.14,23,35c0,3.032,2.468,5.5,5.5,5.5h3c3.032,0,5.5-2.468,5.5-5.5c0-1.86-0.931-3.504-2.348-4.5
			C36.069,29.504,37,27.86,37,26z M35,35c0,1.93-1.57,3.5-3.5,3.5h-3c-1.93,0-3.5-1.57-3.5-3.5s1.57-3.5,3.5-3.5h3
			C33.43,31.5,35,33.07,35,35z M31.5,29.5h-3c-1.93,0-3.5-1.57-3.5-3.5s1.57-3.5,3.5-3.5h3c1.93,0,3.5,1.57,3.5,3.5
			S33.43,29.5,31.5,29.5z"/>
	</g>
</g>
<g>
</g>
<g>
</g>
<g>
</g>
<g>
</g>
<g>
</g>
<g>
</g>
<g>
</g>
<g>
</g>
<g>
</g>
<g>
</g>
<g>
</g>
<g>
</g>
<g>
</g>
<g>
</g>
<g>
</g>
</svg>
